<svg width="52" height="52" viewBox="0 0 52 52" fill="none" xmlns="http://www.w3.org/2000/svg">
<circle cx="26" cy="26" r="26" fill="#F4790F"/>
<path d="M38.5227 27.1477C39.1574 26.5129 39.1574 25.482 38.5227 24.8473L32.0227 18.3473C31.3879 17.7125 30.357 17.7125 29.7223 18.3473C29.0875 18.982 29.0875 20.0129 29.7223 20.6477L33.4496 24.375H14.625C13.7262 24.375 13 25.1012 13 26C13 26.8988 13.7262 27.625 14.625 27.625H33.4496L29.7223 31.3523C29.0875 31.9871 29.0875 33.018 29.7223 33.6527C30.357 34.2875 31.3879 34.2875 32.0227 33.6527L38.5227 27.1527V27.1477Z" fill="white"/>
</svg>
