<svg width="35" height="35" viewBox="0 0 35 35" fill="none" xmlns="http://www.w3.org/2000/svg">
<circle cx="17.5" cy="17.5" r="17" stroke="#DDDDDD"/>
<g clip-path="url(#clip0_137_3454)">
<path d="M17.5041 13.0078C14.9487 13.0078 12.8876 15.0117 12.8876 17.4961C12.8876 19.9805 14.9487 21.9844 17.5041 21.9844C20.0595 21.9844 22.1206 19.9805 22.1206 17.4961C22.1206 15.0117 20.0595 13.0078 17.5041 13.0078ZM17.5041 20.4141C15.8528 20.4141 14.5028 19.1055 14.5028 17.4961C14.5028 15.8867 15.8487 14.5781 17.5041 14.5781C19.1595 14.5781 20.5054 15.8867 20.5054 17.4961C20.5054 19.1055 19.1554 20.4141 17.5041 20.4141ZM23.3862 12.8242C23.3862 13.4062 22.9041 13.8711 22.3095 13.8711C21.7108 13.8711 21.2327 13.4023 21.2327 12.8242C21.2327 12.2461 21.7148 11.7773 22.3095 11.7773C22.9041 11.7773 23.3862 12.2461 23.3862 12.8242ZM26.4438 13.8867C26.3755 12.4844 26.0461 11.2422 24.9894 10.2187C23.9367 9.19531 22.659 8.875 21.2166 8.80469C19.73 8.72266 15.2742 8.72266 13.7876 8.80469C12.3492 8.87109 11.0715 9.19141 10.0148 10.2148C8.95812 11.2383 8.63267 12.4805 8.56035 13.8828C8.47598 15.3281 8.47598 19.6602 8.56035 21.1055C8.62866 22.5078 8.95812 23.75 10.0148 24.7734C11.0715 25.7969 12.3452 26.1172 13.7876 26.1875C15.2742 26.2695 19.73 26.2695 21.2166 26.1875C22.659 26.1211 23.9367 25.8008 24.9894 24.7734C26.042 23.75 26.3715 22.5078 26.4438 21.1055C26.5282 19.6602 26.5282 15.332 26.4438 13.8867ZM24.5233 22.6562C24.2099 23.4219 23.6032 24.0117 22.8117 24.3203C21.6264 24.7773 18.8139 24.6719 17.5041 24.6719C16.1943 24.6719 13.3778 24.7734 12.1965 24.3203C11.409 24.0156 10.8023 23.4258 10.4849 22.6562C10.0148 21.5039 10.1233 18.7695 10.1233 17.4961C10.1233 16.2227 10.0188 13.4844 10.4849 12.3359C10.7983 11.5703 11.405 10.9805 12.1965 10.6719C13.3818 10.2148 16.1943 10.3203 17.5041 10.3203C18.8139 10.3203 21.6304 10.2187 22.8117 10.6719C23.5992 10.9766 24.2059 11.5664 24.5233 12.3359C24.9934 13.4883 24.8849 16.2227 24.8849 17.4961C24.8849 18.7695 24.9934 21.5078 24.5233 22.6562Z" fill="white"/>
</g>
<defs>
<clipPath id="clip0_137_3454">
<rect width="18" height="20" fill="white" transform="translate(8.5 7.5)"/>
</clipPath>
</defs>
</svg>
