<svg width="35" height="35" viewBox="0 0 35 35" fill="none" xmlns="http://www.w3.org/2000/svg">
<circle cx="17.5" cy="17.5" r="17" stroke="#DDDDDD"/>
<path d="M14.1344 24H11.2313V14.6531H14.1344V24ZM12.6812 13.3781C11.7531 13.3781 11 12.6094 11 11.6812C11 11.2354 11.1771 10.8077 11.4924 10.4924C11.8077 10.1771 12.2354 10 12.6812 10C13.1271 10 13.5548 10.1771 13.8701 10.4924C14.1854 10.8077 14.3625 11.2354 14.3625 11.6812C14.3625 12.6094 13.6094 13.3781 12.6812 13.3781ZM24.9969 24H22.1V19.45C22.1 18.3656 22.0781 16.975 20.5906 16.975C19.0813 16.975 18.85 18.1531 18.85 19.3719V24H15.95V14.6531H18.7344V15.9281H18.775C19.1625 15.1937 20.1094 14.4187 21.5219 14.4187C24.4594 14.4187 25 16.3531 25 18.8656V24H24.9969Z" fill="white"/>
</svg>
