<svg width="64" height="64" viewBox="0 0 64 64" fill="none" xmlns="http://www.w3.org/2000/svg">
<circle cx="32" cy="32" r="31.5" stroke="white"/>
<g clip-path="url(#clip0_137_3419)">
<path d="M33.6387 46.25C36.6445 42.4883 43.5 33.3711 43.5 28.25C43.5 22.0391 38.4609 17 32.25 17C26.0391 17 21 22.0391 21 28.25C21 33.3711 27.8555 42.4883 30.8613 46.25C31.582 47.1465 32.918 47.1465 33.6387 46.25ZM32.25 24.5C33.2446 24.5 34.1984 24.8951 34.9017 25.5983C35.6049 26.3016 36 27.2554 36 28.25C36 29.2446 35.6049 30.1984 34.9017 30.9016C34.1984 31.6049 33.2446 32 32.25 32C31.2554 32 30.3016 31.6049 29.5983 30.9016C28.8951 30.1984 28.5 29.2446 28.5 28.25C28.5 27.2554 28.8951 26.3016 29.5983 25.5983C30.3016 24.8951 31.2554 24.5 32.25 24.5Z" fill="white"/>
</g>
<defs>
<clipPath id="clip0_137_3419">
<rect width="22.5" height="30" fill="white" transform="translate(21 17)"/>
</clipPath>
</defs>
</svg>
